<svg width="410" height="45" viewBox="0 0 410 45" fill="none" xmlns="http://www.w3.org/2000/svg">
<rect width="410" height="45" rx="3" fill="#3456F3"/>
<path d="M177.895 21.1293H176.343C176.284 20.7978 176.173 20.5062 176.01 20.2543C175.848 20.0024 175.649 19.7886 175.414 19.6129C175.178 19.4373 174.915 19.3047 174.623 19.2152C174.335 19.1257 174.028 19.081 173.704 19.081C173.117 19.081 172.592 19.2285 172.128 19.5234C171.667 19.8184 171.302 20.2509 171.034 20.821C170.769 21.3911 170.636 22.0871 170.636 22.9091C170.636 23.7377 170.769 24.437 171.034 25.0071C171.302 25.5772 171.669 26.008 172.133 26.2997C172.597 26.5914 173.119 26.7372 173.699 26.7372C174.02 26.7372 174.325 26.6941 174.613 26.608C174.905 26.5185 175.169 26.3875 175.404 26.2152C175.639 26.0429 175.838 25.8324 176 25.5838C176.166 25.3319 176.281 25.0436 176.343 24.7188L177.895 24.7237C177.812 25.2242 177.651 25.6849 177.412 26.1058C177.177 26.5234 176.874 26.8847 176.503 27.1896C176.135 27.4912 175.714 27.7249 175.24 27.8906C174.766 28.0563 174.249 28.1392 173.689 28.1392C172.807 28.1392 172.022 27.9304 171.332 27.5128C170.643 27.0919 170.099 26.4903 169.701 25.7081C169.307 24.9259 169.11 23.9929 169.11 22.9091C169.11 21.822 169.309 20.889 169.706 20.1101C170.104 19.3279 170.648 18.728 171.337 18.3104C172.026 17.8894 172.81 17.679 173.689 17.679C174.229 17.679 174.733 17.7569 175.2 17.9126C175.671 18.0651 176.093 18.2905 176.468 18.5888C176.842 18.8838 177.152 19.245 177.397 19.6726C177.643 20.0968 177.808 20.5824 177.895 21.1293ZM182.83 28.1541C182.114 28.1541 181.489 27.9901 180.956 27.6619C180.422 27.3338 180.008 26.8748 179.713 26.2848C179.418 25.6948 179.271 25.0054 179.271 24.2166C179.271 23.4245 179.418 22.7318 179.713 22.1385C180.008 21.5452 180.422 21.0845 180.956 20.7564C181.489 20.4283 182.114 20.2642 182.83 20.2642C183.546 20.2642 184.171 20.4283 184.704 20.7564C185.238 21.0845 185.652 21.5452 185.947 22.1385C186.242 22.7318 186.39 23.4245 186.39 24.2166C186.39 25.0054 186.242 25.6948 185.947 26.2848C185.652 26.8748 185.238 27.3338 184.704 27.6619C184.171 27.9901 183.546 28.1541 182.83 28.1541ZM182.835 26.9062C183.299 26.9062 183.684 26.7836 183.989 26.5384C184.293 26.2931 184.519 25.9666 184.665 25.5589C184.814 25.1513 184.888 24.7022 184.888 24.2116C184.888 23.7244 184.814 23.277 184.665 22.8693C184.519 22.4583 184.293 22.1286 183.989 21.88C183.684 21.6314 183.299 21.5071 182.835 21.5071C182.368 21.5071 181.98 21.6314 181.672 21.88C181.367 22.1286 181.14 22.4583 180.991 22.8693C180.845 23.277 180.772 23.7244 180.772 24.2116C180.772 24.7022 180.845 25.1513 180.991 25.5589C181.14 25.9666 181.367 26.2931 181.672 26.5384C181.98 26.7836 182.368 26.9062 182.835 26.9062ZM188.922 20.3636L190.607 23.3366L192.307 20.3636H193.933L191.552 24.1818L193.953 28H192.327L190.607 25.1463L188.892 28H187.261L189.638 24.1818L187.291 20.3636H188.922ZM195.459 30.8636V20.3636H196.911V21.6016H197.035C197.121 21.4425 197.246 21.2585 197.408 21.0497C197.571 20.8409 197.796 20.6586 198.084 20.5028C198.373 20.3438 198.754 20.2642 199.228 20.2642C199.844 20.2642 200.394 20.42 200.878 20.7315C201.362 21.0431 201.742 21.4922 202.017 22.0788C202.295 22.6655 202.434 23.3714 202.434 24.1967C202.434 25.022 202.297 25.7296 202.022 26.3196C201.747 26.9062 201.369 27.3587 200.888 27.6768C200.408 27.9917 199.859 28.1491 199.243 28.1491C198.779 28.1491 198.399 28.0713 198.104 27.9155C197.812 27.7597 197.584 27.5774 197.418 27.3686C197.252 27.1598 197.125 26.9742 197.035 26.8118H196.946V30.8636H195.459ZM196.916 24.1818C196.916 24.7187 196.994 25.1894 197.15 25.5938C197.305 25.9981 197.531 26.3146 197.826 26.5433C198.121 26.7687 198.482 26.8814 198.91 26.8814C199.354 26.8814 199.725 26.7637 200.023 26.5284C200.321 26.2898 200.547 25.9666 200.699 25.5589C200.855 25.1513 200.933 24.6922 200.933 24.1818C200.933 23.678 200.857 23.2256 200.704 22.8246C200.555 22.4235 200.33 22.107 200.028 21.875C199.73 21.643 199.357 21.527 198.91 21.527C198.479 21.527 198.114 21.638 197.816 21.8601C197.521 22.0821 197.297 22.392 197.145 22.7898C196.992 23.1875 196.916 23.6515 196.916 24.1818ZM206.322 28.169C205.838 28.169 205.401 28.0795 205.01 27.9006C204.619 27.7183 204.309 27.4548 204.08 27.1101C203.855 26.7654 203.742 26.3428 203.742 25.8423C203.742 25.4115 203.825 25.0568 203.991 24.7784C204.156 24.5 204.38 24.2796 204.662 24.1172C204.943 23.9548 205.258 23.8321 205.606 23.7493C205.954 23.6664 206.309 23.6035 206.67 23.5604C207.128 23.5073 207.499 23.4643 207.784 23.4311C208.069 23.3946 208.276 23.3366 208.405 23.2571C208.535 23.1776 208.599 23.0483 208.599 22.8693V22.8345C208.599 22.4003 208.477 22.0639 208.231 21.8253C207.989 21.5866 207.628 21.4673 207.147 21.4673C206.647 21.4673 206.253 21.5784 205.964 21.8004C205.679 22.0192 205.482 22.2628 205.373 22.5312L203.976 22.2131C204.141 21.7491 204.383 21.3745 204.701 21.0895C205.023 20.8011 205.392 20.5923 205.81 20.4631C206.228 20.3305 206.667 20.2642 207.128 20.2642C207.432 20.2642 207.756 20.3007 208.097 20.3736C208.442 20.4432 208.763 20.5724 209.062 20.7614C209.363 20.9503 209.61 21.2204 209.802 21.5717C209.995 21.9197 210.091 22.3722 210.091 22.929V28H208.639V26.956H208.579C208.483 27.1482 208.339 27.3371 208.147 27.5227C207.955 27.7083 207.708 27.8625 207.406 27.9851C207.104 28.1077 206.743 28.169 206.322 28.169ZM206.645 26.9759C207.056 26.9759 207.408 26.8946 207.699 26.7322C207.994 26.5698 208.218 26.3577 208.37 26.0959C208.526 25.8307 208.604 25.5473 208.604 25.2457V24.2614C208.551 24.3144 208.448 24.3641 208.296 24.4105C208.147 24.4536 207.976 24.4917 207.784 24.5249C207.592 24.5547 207.404 24.5829 207.222 24.6094C207.04 24.6326 206.887 24.6525 206.765 24.669C206.476 24.7055 206.213 24.7668 205.974 24.853C205.739 24.9392 205.55 25.0634 205.407 25.2259C205.268 25.3849 205.199 25.5971 205.199 25.8622C205.199 26.2301 205.334 26.5085 205.606 26.6974C205.878 26.883 206.224 26.9759 206.645 26.9759ZM217.246 23.5405V24.8281H213.11V23.5405H217.246ZM213.527 20.3636V28H212.071V20.3636H213.527ZM218.285 20.3636V28H216.833V20.3636H218.285ZM221.73 25.9169L225.096 20.3636H226.697V28H225.24V22.4418L221.889 28H220.274V20.3636H221.73V25.9169ZM227.748 21.6463V20.3636H234.192V21.6463H231.701V28H230.249V21.6463H227.748ZM236.883 22.9886H239.1C240.035 22.9886 240.754 23.2206 241.258 23.6847C241.761 24.1487 242.013 24.7469 242.013 25.4794C242.013 25.9567 241.901 26.3859 241.675 26.767C241.45 27.1482 241.12 27.4498 240.686 27.6719C240.252 27.8906 239.723 28 239.1 28H235.764V20.3636H237.221V26.7173H239.1C239.527 26.7173 239.879 26.6063 240.154 26.3842C240.429 26.1589 240.566 25.8722 240.566 25.5241C240.566 25.1562 240.429 24.8563 240.154 24.6243C239.879 24.389 239.527 24.2713 239.1 24.2713H236.883V22.9886Z" fill="white"/>
</svg>
